HIERARCHY
ROOT hip
{
	OFFSET 0.000000 0.000000 0.000000 
	CHANNELS 6 Xposition Yposition Zposition Xrotation Zrotation Yrotation
	JOINT abdomen
	{
		OFFSET 0.000000 3.402643 0.000000 
		CHANNELS 3 Xrotation Zrotation Yrotation
		JOINT chest
		{
			OFFSET 0.000000 8.438565 -0.680529 
			CHANNELS 3 Xrotation Zrotation Yrotation
			JOINT neck
			{
				OFFSET 0.000000 10.207942 -0.272212 
				CHANNELS 3 Xrotation Zrotation Yrotation
				JOINT head
				{
					OFFSET 0.000000 3.130431 0.000000 
					CHANNELS 3 Xrotation Zrotation Yrotation
					End Site
					{
						OFFSET 0.000000 3.130435 0.000000 
					}
				}
			}
			JOINT lCollar
			{
				OFFSET 3.470700 6.669187 -0.816635 
				CHANNELS 3 Zrotation Yrotation Xrotation
				JOINT lShldr
				{
					OFFSET 3.198488 0.000000 0.000000 
					CHANNELS 3 Zrotation Yrotation Xrotation
					JOINT lForeArm
					{
						OFFSET 10.139888 0.000000 0.000000 
						CHANNELS 3 Yrotation Zrotation Xrotation
						JOINT lHand
						{
							OFFSET 8.370511 0.000000 0.000000 
							CHANNELS 3 Zrotation Yrotation Xrotation
							End Site
							{
								OFFSET 4.083176 0.000000 0.000000 
							}
						}
					}
				}
			}
			JOINT rCollar
			{
				OFFSET -3.470700 6.669187 -0.816635 
				CHANNELS 3 Zrotation Yrotation Xrotation
				JOINT rShldr
				{
					OFFSET -3.198488 0.000000 0.000000 
					CHANNELS 3 Zrotation Yrotation Xrotation
					JOINT rForeArm
					{
						OFFSET -10.139888 0.000000 0.000000 
						CHANNELS 3 Yrotation Zrotation Xrotation
						JOINT rHand
						{
							OFFSET -8.370511 0.000000 0.000000 
							CHANNELS 3 Zrotation Yrotation Xrotation
							End Site
							{
								OFFSET -4.083176 0.000000 0.000000 
							}
						}
					}
				}
			}
		}
	}
	JOINT lThigh
	{
		OFFSET 5.308129 -1.633274 1.361059 
		CHANNELS 3 Xrotation Zrotation Yrotation
		JOINT lShin
		{
			OFFSET -2.041588 -20.007561 0.000000 
			CHANNELS 3 Xrotation Zrotation Yrotation
			JOINT lFoot
			{
				OFFSET 0.000000 -19.190928 -1.224953 
				CHANNELS 3 Xrotation Yrotation Zrotation
				End Site
				{
					OFFSET 0.000000 -2.449906 4.627600 
				}
			}
		}
	}
	JOINT rThigh
	{
		OFFSET -5.308129 -1.633274 1.361059 
		CHANNELS 3 Xrotation Zrotation Yrotation
		JOINT rShin
		{
			OFFSET 2.041588 -20.007561 0.000000 
			CHANNELS 3 Xrotation Zrotation Yrotation
			JOINT rFoot
			{
				OFFSET 0.000000 -19.190928 -1.224953 
				CHANNELS 3 Xrotation Yrotation Zrotation
				End Site
				{
					OFFSET 0.000000 -2.449906 4.627600 
				}
			}
		}
	}
}
MOTION
Frames: 16
Frame Time: 0.016667
18.271196 34.183769 243.725235 -15.451365 -13.886409 7.575668 48.985043 19.180273 9.395291 5.716872 -2.636509 -0.030329 -4.609372 -0.020772 -0.006737 5.158353 -4.750196 2.801968 -11.331618 -20.297464 3.413138 -67.709358 -1.316002 -17.247084 -83.108887 5.000000 -1.458316 2.295756 -11.692579 -45.000000 -4.688822 19.678959 -1.380073 63.344013 24.828592 12.551483 89.669380 5.000000 0.230529 0.549954 -18.288519 -29.872652 -66.434326 14.189003 -9.676328 82.043839 -1.162442 -13.409025 -2.205176 -0.091685 5.791411 -9.360721 0.918994 -16.341522 111.854965 -3.789102 8.118365 -67.450485 -10.292956 -3.156286 
18.408865 33.669544 245.005402 -16.372215 -14.330628 9.254003 48.217548 20.516609 9.361121 5.685122 -2.871017 0.467810 -4.306599 -0.596304 0.040736 5.846721 -4.393149 1.439557 -12.194776 -19.470642 3.508956 -68.645203 0.393017 -20.504137 -84.182892 5.000000 -0.861777 2.901972 -12.044671 -45.000000 -4.912730 20.109617 -1.476576 62.767696 23.762133 11.454663 90.765053 5.000000 -0.414512 0.493067 -18.162989 -30.312744 -67.221535 13.124683 -9.914809 86.808403 -0.077440 -13.753839 -4.708882 0.266983 6.892235 -6.481832 0.771838 -17.460661 112.374397 -3.944804 8.230104 -67.070221 -9.996554 -2.406461 
18.520479 33.186146 246.214172 -17.149824 -14.554320 10.991319 47.308250 21.633135 9.039592 5.687685 -2.998044 0.995690 -4.111319 -1.162180 0.086753 6.499039 -4.072263 0.068187 -12.938031 -18.642216 3.547356 -69.316216 1.960741 -23.482883 -85.029572 3.653093 -0.429011 3.595562 -12.381799 -45.000000 -5.068639 20.500938 -1.556913 62.268246 22.782801 10.523903 91.739868 5.000000 -1.066344 0.469833 -18.043646 -30.648186 -67.825577 12.011520 -9.866699 90.919685 0.927678 -13.938893 -6.985380 0.530371 7.891696 -3.805547 0.703998 -18.602570 112.687691 -4.081661 8.385036 -66.256126 -10.066105 -1.688716 
18.606371 32.733501 247.355453 -17.747742 -14.578157 12.770384 46.245754 22.511881 8.416360 5.716927 -3.027304 1.523544 -4.013787 -1.737711 0.134534 7.097731 -3.788087 -1.301797 -13.574594 -17.821777 3.540348 -69.684906 3.401029 -26.184690 -85.664940 0.171224 -0.115237 4.375542 -12.711916 -45.000000 -5.156590 20.862667 -1.621045 61.865215 21.899939 9.765612 92.581490 5.000000 -1.682690 0.486634 -17.924194 -30.866114 -68.205498 10.810397 -9.552703 94.404678 1.834931 -13.900178 -9.161817 0.766183 8.814427 -1.382511 0.725043 -19.773161 112.815025 -4.198982 8.565734 -64.976379 -10.479676 -1.044121 
18.668392 32.310760 248.418793 -18.312378 -14.551121 14.517927 45.168152 23.302301 7.730304 5.745099 -3.027128 2.080671 -3.945636 -2.313241 0.182126 7.663731 -3.511815 -2.671175 -14.168177 -17.015490 3.502569 -70.055885 4.771985 -28.735283 -86.206779 -3.199314 0.119855 5.170774 -13.035575 -45.000000 -5.253556 21.214680 -1.671458 61.481823 21.065763 9.059765 93.402527 5.000000 -2.317262 0.493732 -17.809898 -31.084120 -68.598221 9.648477 -9.253096 97.795906 2.693676 -13.812649 -11.279573 0.853163 9.608435 0.937254 0.808434 -20.899698 112.953629 -4.304463 8.715904 -63.570011 -11.016311 -0.356116 
18.709684 31.913599 249.410095 -18.663164 -14.348972 16.141382 44.048981 23.731058 6.882147 5.803590 -2.919389 2.618255 -3.985645 -2.925931 0.245217 8.081352 -3.263412 -4.030244 -14.623334 -16.295460 3.439162 -70.069405 5.817290 -30.355440 -86.329758 -5.000000 0.295075 6.084045 -13.291236 -45.000000 -5.380141 21.478943 -1.733739 61.283203 20.414423 8.599288 93.791573 5.000000 -2.638861 0.464697 -17.754444 -31.247002 -68.911797 8.525417 -8.910801 100.576736 3.259355 -13.350343 -13.031715 0.768572 10.193239 2.828663 1.006033 -21.974487 112.937798 -4.382295 8.831164 -61.865894 -11.963705 0.370156 
18.731531 31.541702 250.331207 -18.945663 -14.092264 17.738146 42.911858 24.080725 5.985341 5.864397 -2.782244 3.155842 -4.045547 -3.538619 0.308313 8.467233 -3.014040 -5.379046 -15.049317 -15.607464 3.365260 -70.031548 6.811734 -31.812374 -86.377205 -5.000000 0.462609 7.008548 -13.524228 -45.000000 -5.516760 21.743265 -1.805342 61.103985 19.792139 8.177893 94.108414 5.000000 -2.907664 0.435354 -17.699306 -31.410021 -69.213562 7.431812 -8.589190 103.275810 3.738947 -12.836814 -14.732285 0.568905 10.664346 4.615212 1.239296 -22.999367 112.922844 -4.415141 8.953770 -60.022678 -13.003350 1.146202 
18.736372 31.195309 251.174637 -19.134874 -13.821165 19.178600 41.856846 24.278093 5.133290 5.929105 -2.654842 3.663725 -4.175311 -4.109758 0.384833 8.756312 -2.832584 -6.619623 -15.412445 -15.038294 3.297066 -69.854256 7.564905 -32.725998 -86.146637 -5.000000 0.626144 7.946834 -13.679496 -45.000000 -5.623972 21.939093 -1.858836 60.983856 19.344767 7.900145 94.113808 5.000000 -2.960599 0.405978 -17.662653 -31.608852 -69.514351 6.455271 -8.380642 105.650414 4.120205 -12.232121 -16.305031 0.143529 10.818394 6.135356 1.579196 -23.945293 112.823814 -4.405789 8.995879 -58.348606 -14.071732 1.784566 
18.725170 30.871971 251.948181 -19.197552 -13.519637 20.472589 40.883945 24.339048 4.313073 5.987810 -2.527469 4.132616 -4.373641 -4.622961 0.452572 8.962019 -2.709481 -7.743219 -15.714389 -14.606001 3.246427 -69.503380 8.080010 -33.082924 -85.616447 -5.000000 0.814479 8.896557 -13.757017 -45.000000 -5.731431 22.086107 -1.912332 60.912056 19.052895 7.801859 93.788620 5.000000 -2.757230 0.397212 -17.634293 -31.858711 -69.843018 5.566128 -8.333107 107.751625 4.361342 -11.488821 -17.735636 -0.401971 10.677837 7.419756 1.971674 -24.795656 112.688370 -4.385576 8.969466 -56.809887 -15.066412 2.353429 
18.702856 30.570818 252.659470 -19.260664 -13.213663 21.775972 39.894260 24.371534 3.493746 6.047889 -2.409848 4.591755 -4.563600 -5.134696 0.530779 9.172790 -2.585955 -8.866837 -16.015385 -14.165236 3.186242 -69.162811 8.591688 -33.427086 -85.077118 -5.000000 1.033323 9.838177 -13.818538 -45.000000 -5.837833 22.223368 -1.946335 60.850067 18.760868 7.703623 93.453972 5.000000 -2.548147 0.374153 -17.603376 -32.107296 -70.156219 4.697889 -8.310337 109.833427 4.578068 -10.784543 -19.159462 -0.999617 10.513421 8.687578 2.400159 -25.653698 112.504799 -4.336100 8.945366 -55.271351 -16.064182 2.923673 
18.670601 30.295712 253.302628 -19.174425 -12.977931 22.770170 39.105637 24.357395 2.783032 6.090629 -2.321590 4.963051 -4.843113 -5.556600 0.614241 9.299159 -2.464113 -9.726199 -16.304314 -13.980118 3.194922 -68.731628 8.723907 -33.215248 -84.099083 -5.000000 1.359230 10.630640 -13.816257 -45.000000 -5.936100 22.301985 -2.000289 60.829315 18.780706 7.778433 92.574203 5.000000 -1.901615 0.357779 -17.603289 -32.532898 -70.552948 4.043028 -8.488451 111.488548 4.696034 -10.351958 -20.374435 -1.551886 10.117937 9.667672 2.948513 -26.310263 112.168579 -4.219566 8.858963 -54.704048 -16.523432 2.888786 
18.629585 30.040928 253.888382 -19.083544 -12.739487 23.773827 38.325695 24.315348 2.085653 6.143378 -2.243078 5.333959 -5.114524 -5.967374 0.706802 9.433127 -2.351984 -10.575438 -16.592274 -13.785855 3.199100 -68.304916 8.844727 -32.994671 -83.113289 -5.000000 1.715708 11.413980 -13.796850 -45.000000 -6.033386 22.361084 -2.034737 60.808224 18.781017 7.856380 91.658188 5.000000 -1.213804 0.344551 -17.604397 -32.970928 -70.937904 3.379789 -8.672922 113.154129 4.843800 -9.887651 -21.579647 -2.113954 9.643462 10.642165 3.494099 -26.978243 111.822533 -4.111306 8.775850 -54.147087 -16.919024 2.839744 
18.582441 29.801207 254.425064 -18.950535 -12.498075 24.603464 37.649487 24.227993 1.385385 6.156462 -2.193831 5.675964 -5.374913 -6.302363 0.778145 9.493571 -2.270189 -11.229964 -16.836710 -13.688036 3.219921 -67.950577 8.886641 -32.754963 -82.046654 -5.000000 2.059666 11.978216 -13.773458 -45.000000 -6.131024 22.449482 -2.078957 60.807140 18.859148 7.983331 90.609024 5.000000 -0.420284 0.312039 -17.547840 -33.400761 -71.321480 2.842388 -8.741828 114.600044 4.988213 -9.574336 -22.711145 -2.593315 9.281578 11.490624 4.020272 -27.494263 111.459465 -3.974199 8.646165 -53.809658 -17.111506 2.709563 
18.527851 29.579182 254.904785 -18.770445 -12.236491 25.270981 37.093845 24.106394 0.710636 6.130451 -2.164110 5.978916 -5.596744 -6.558641 0.847455 9.495665 -2.237896 -11.679202 -17.057182 -13.675916 3.259654 -67.669159 8.850093 -32.495274 -80.922348 -5.000000 2.379470 12.313868 -13.762877 -45.000000 -6.218499 22.547602 -2.113896 60.835873 19.005184 8.149594 89.441689 5.000000 0.477585 0.267624 -17.441956 -33.839245 -71.690033 2.432309 -8.745414 115.894157 5.154405 -9.403106 -23.671036 -3.023245 8.925568 12.274659 4.481325 -27.873125 111.116272 -3.848568 8.499947 -53.779263 -16.952841 2.505723 
18.468969 29.370985 255.342239 -18.576906 -11.990031 25.877714 36.562195 23.961998 0.050843 6.113187 -2.153865 6.281865 -5.828480 -6.795602 0.912726 9.485256 -2.206042 -12.069896 -17.259157 -13.652542 3.304291 -67.433380 8.810829 -32.254105 -79.816269 -5.000000 2.705014 12.592246 -13.744732 -45.000000 -6.306502 22.645725 -2.158595 60.854805 19.151384 8.315765 88.251678 5.000000 1.402530 0.249207 -17.337326 -34.252853 -72.060455 2.061883 -8.694231 117.128403 5.340710 -9.273083 -24.627691 -3.357337 8.620839 12.981216 4.905553 -28.229427 110.764297 -3.701767 8.350551 -53.642101 -16.843395 2.331275 
18.406639 29.174057 255.740189 -18.335173 -11.763778 26.194994 36.148617 23.781553 -0.461897 6.106489 -2.182790 6.447789 -6.078663 -6.945664 0.966007 9.426677 -2.186062 -12.177233 -17.370077 -13.655663 3.326931 -67.399689 8.721572 -32.174511 -78.806648 -5.000000 3.009660 12.611139 -13.706013 -45.000000 -6.413451 22.763493 -2.202400 60.923054 19.316359 8.482342 87.077240 5.000000 2.321362 0.299690 -17.197199 -34.560875 -72.457626 1.914355 -8.423114 118.181946 5.575914 -9.280781 -25.326748 -3.418059 8.511568 13.484446 5.173894 -28.386059 110.545113 -3.632812 8.253323 -53.074535 -16.746954 2.338322 
